<svg xmlns="http://www.w3.org/2000/svg" viewBox="0 0 1500 1250">
<path id="region-417" d="M762.0,1043.5 L740.0,1043.5 L720.0,1037.5 L713.5,1028.0 L711.5,1006.0 L730.5,940.0 L738.5,920.0 L740.5,905.0 L759.5,872.0 L774.5,836.0 L782.5,824.0 L809.0,798.5 L839.0,787.5 L876.0,778.5 L902.0,767.5 L908.0,768.5 L933.0,797.5 L941.0,800.5 L954.0,810.5 L994.5,849.0 L998.5,858.0 L998.5,864.0 L994.5,873.0 L980.5,890.0 L929.0,939.5 L910.0,954.5 L869.0,980.5 L808.0,1031.5 L793.0,1037.5 L762.0,1043.5 Z" />
<path id="region-418" d="M1019.0,834.5 L993.0,833.5 L969.0,825.5 L948.0,805.5 L933.0,797.5 L919.5,783.0 L911.5,772.0 L910.5,764.0 L912.5,759.0 L923.0,749.5 L951.0,732.5 L1008.0,705.5 L1063.0,675.5 L1112.0,639.5 L1145.5,606.0 L1166.5,568.0 L1231.0,477.5 L1233.0,476.5 L1259.0,491.5 L1286.0,502.5 L1291.5,510.0 L1294.5,524.0 L1296.5,541.0 L1295.5,564.0 L1263.5,631.0 L1239.5,664.0 L1160.0,745.5 L1106.0,793.5 L1062.0,824.5 L1019.0,834.5 Z" />
<path id="region-419" d="M639.0,1038.5 L618.0,1035.5 L604.0,1026.5 L587.5,1011.0 L579.5,999.0 L574.5,985.0 L569.5,953.0 L569.5,880.0 L576.5,838.0 L585.5,819.0 L599.0,803.5 L613.0,795.5 L625.0,792.5 L649.0,792.5 L671.0,798.5 L708.0,836.5 L736.5,858.0 L741.5,873.0 L741.5,888.0 L724.5,932.0 L714.5,985.0 L709.5,997.0 L700.0,1007.5 L673.0,1025.5 L655.0,1034.5 L639.0,1038.5 Z" />
<path id="region-420" d="M729.0,920.5 L741.5,888.0 L741.5,873.0 L736.5,858.0 L708.0,836.5 L671.0,798.5 L649.0,792.5 L625.0,792.5 L610.5,796.0 L634.0,770.5 L654.0,757.5 L688.0,748.5 L719.0,746.5 L758.0,747.5 L791.0,753.5 L800.0,758.5 L810.5,773.0 L811.5,785.0 L807.5,800.0 L777.5,831.0 L750.5,889.0 L737.5,911.0 L729.0,920.5 Z" />
<path id="region-420" d="M610.5,797.0 L609.5,797.0 L610.0,796.5 L610.5,797.0 Z" />
<path id="region-421" d="M1118.0,633.5 L1094.0,629.5 L1060.0,611.5 L1041.5,598.0 L1031.5,580.0 L1025.5,554.0 L1022.5,516.0 L1023.5,443.0 L1026.5,428.0 L1033.5,413.0 L1043.0,403.5 L1051.0,399.5 L1060.0,397.5 L1084.0,399.5 L1112.0,411.5 L1147.0,431.5 L1162.0,441.5 L1179.5,462.0 L1217.5,497.0 L1166.5,568.0 L1145.5,606.0 L1118.0,633.5 Z" />
<path id="region-422" d="M982.0,610.5 L949.0,608.5 L923.5,600.0 L931.5,588.0 L943.5,553.0 L961.5,526.0 L964.5,505.0 L963.5,473.0 L933.5,438.0 L982.0,412.5 L998.0,408.5 L1006.5,416.0 L1011.5,432.0 L1024.5,437.0 L1022.5,453.0 L1024.5,545.0 L1031.5,580.0 L1041.5,597.0 L1021.0,604.5 L982.0,610.5 Z" />
<path id="region-423" d="M838.0,377.5 L782.0,362.5 L742.0,339.5 L716.0,335.5 L676.5,334.0 L695.0,314.5 L709.0,304.5 L775.0,271.5 L800.0,265.5 L828.0,265.5 L843.0,268.5 L865.0,276.5 L869.5,283.0 L851.5,309.0 L846.5,320.0 L841.5,342.0 L838.0,377.5 Z" />
<path id="region-424" d="M934.0,437.5 L919.0,428.5 L900.0,409.5 L864.0,394.5 L838.5,377.0 L842.5,336.0 L851.5,309.0 L873.0,278.5 L890.0,267.5 L904.0,263.5 L931.0,261.5 L977.0,265.5 L1005.0,273.5 L1030.0,287.5 L1060.0,307.5 L1071.5,319.0 L1126.5,385.0 L1149.5,419.0 L1159.5,430.0 L1159.5,433.0 L1154.0,436.5 L1096.0,403.5 L1073.0,397.5 L1060.0,397.5 L1043.0,403.5 L1033.5,413.0 L1028.5,422.0 L1025.0,436.5 L1012.0,432.5 L1006.5,416.0 L1001.0,409.5 L996.0,408.5 L982.0,412.5 L934.0,437.5 Z" />
<path id="region-426" d="M287.0,695.5 L276.0,687.5 L241.0,671.5 L220.0,653.5 L209.5,640.0 L202.5,612.0 L204.5,586.0 L210.5,574.0 L220.0,564.5 L230.0,559.5 L251.0,554.5 L279.0,552.5 L293.0,553.5 L304.5,559.0 L295.5,579.0 L278.5,602.0 L271.5,624.0 L270.5,654.0 L272.5,669.0 L278.5,685.0 L287.0,695.5 Z" />
<path id="region-426" d="M288.5,696.0 L287.5,696.0 L288.0,695.5 L288.5,696.0 Z" />
<path id="region-426" d="M289.5,697.0 L288.5,697.0 L289.0,696.5 L289.5,697.0 Z" />
<path id="region-426" d="M290.5,698.0 L289.5,698.0 L290.0,697.5 L290.5,698.0 Z" />
<path id="region-426" d="M291.5,699.0 L290.5,699.0 L291.0,698.5 L291.5,699.0 Z" />
<path id="region-426" d="M330.5,732.0 L329.5,732.0 L330.0,731.5 L330.5,732.0 Z" />
<path id="region-426" d="M331.5,733.0 L330.5,733.0 L331.0,732.5 L331.5,733.0 Z" />
<path id="region-429" d="M474.0,780.5 L453.0,778.5 L407.0,761.5 L362.0,748.5 L339.0,738.5 L309.0,716.5 L278.5,685.0 L273.5,673.0 L270.5,654.0 L271.5,624.0 L274.5,611.0 L278.5,602.0 L295.5,579.0 L314.5,534.0 L354.5,482.0 L408.0,428.5 L433.0,408.5 L458.0,400.5 L484.0,401.5 L496.0,406.5 L502.5,412.0 L499.5,440.0 L502.5,465.0 L531.5,494.0 L557.5,527.0 L597.5,596.0 L613.5,629.0 L642.5,669.0 L640.5,681.0 L632.0,690.5 L610.0,699.5 L581.0,706.5 L569.0,712.5 L544.0,728.5 L502.0,772.5 L488.0,778.5 L474.0,780.5 Z" />
<path id="region-430" d="M777.0,725.5 L750.0,722.5 L731.0,709.5 L717.0,703.5 L697.0,697.5 L661.0,691.5 L650.5,686.0 L641.5,667.0 L613.5,629.0 L597.5,596.0 L557.5,527.0 L531.5,494.0 L502.5,465.0 L499.5,448.0 L500.5,425.0 L505.5,387.0 L512.0,375.5 L539.0,364.5 L576.0,354.5 L598.0,341.5 L615.0,336.5 L690.0,334.5 L734.0,337.5 L748.0,342.5 L782.0,362.5 L839.0,377.5 L864.0,394.5 L900.0,409.5 L919.0,428.5 L933.0,437.5 L952.5,462.0 L962.5,471.0 L964.5,477.0 L964.5,505.0 L961.5,526.0 L941.5,557.0 L928.5,594.0 L918.5,606.0 L906.5,627.0 L882.5,657.0 L870.5,679.0 L860.0,689.5 L823.0,702.5 L804.0,718.5 L777.0,725.5 Z" />
<path id="region-431" d="M304.0,558.5 L288.0,551.5 L241.0,542.5 L219.0,533.5 L210.5,522.0 L208.5,512.0 L208.5,497.0 L212.5,474.0 L231.5,428.0 L244.5,403.0 L258.5,384.0 L281.0,361.5 L311.0,338.5 L362.0,314.5 L375.0,312.5 L387.0,318.5 L441.0,359.5 L480.0,381.5 L503.5,401.0 L502.5,411.0 L484.0,401.5 L458.0,400.5 L441.0,404.5 L424.0,414.5 L354.5,482.0 L314.5,534.0 L304.0,558.5 Z" />
<path id="region-432" d="M504.0,393.5 L458.0,369.5 L435.0,351.5 L416.5,332.0 L407.5,319.0 L403.5,308.0 L404.5,289.0 L414.0,274.5 L469.0,243.5 L533.0,227.5 L570.0,211.5 L591.0,207.5 L616.0,205.5 L685.0,205.5 L705.0,207.5 L739.0,215.5 L763.5,234.0 L758.0,238.5 L742.0,242.5 L725.0,252.5 L680.5,302.0 L647.0,333.5 L606.0,338.5 L576.0,354.5 L523.0,370.5 L508.5,379.0 L504.0,393.5 Z" />
</svg>